<svg xmlns="http://www.w3.org/2000/svg" width="750" height="172" viewBox="0 0 750 172"><defs><style/></defs><pattern id="diagonal-texture" patternUnits="userSpaceOnUse" width="6" height="6"><style>.diagonal-1{fill:#242424}</style><path d="M0 0h6v6H0z"/><path class="diagonal-1" d="M5 0h1v1H5zM4 1h1v1H4zM3 2h1v1H3zM2 3h1v1H2zM1 4h1v1H1zM0 5h1v1H0zM4.5.5H5V1h-.5zM5 1h.5v.5H5zM4 2h.5v.5H4zm-.5-.5H4V2h-.5zm-1 1H3V3h-.5zM3 3h.5v.5H3zM2 4h.5v.5H2zM1 5h.5v.5H1zM0 0h.5v.5H0z"/>/&gt;<path class="diagonal-1" d="M5.5 5.5H6V6h-.5zm-4-2H2V4h-.5zm-1 1H1V5H.5z"/></pattern><g fill="url(#diagonal-texture)"><path d="M112.33 157.22C106 142.5 94.47 123.86 84.83 111l-19 7.85a199.08 199.08 0 0 1 12.68 19.85c-8.32.87-17.35 1.74-25.87 2.51 7.41-18.86 15.32-43 21.21-57l-22.2-6.91c-2.43 12.76-12.38 43.51-21.1 65.53-4 .22-7.51.33-10.55.33l3.55 23.44c14.2-2.29 42.72-6.11 64.33-9.16 2 4.58 3.75 8.94 5.17 13zm80.05-45.14c-11.46.22-29.22.33-46.37.33-14.92 0-29.32-.11-38.86-.33V134c9.23-.11 23.13-.22 37.54-.22 17.55 0 35.92.11 47.69.22zm92.02-27.69a150.23 150.23 0 0 0-10.45-12.87l-8.22 5.67c3.75 4.58 7 8.94 10.25 13.41zm-9.94 7.31c-3.45-4.91-6.6-9.05-10.15-13.52l-8.42 5.78a157.41 157.41 0 0 1 9.94 14zm-1.73 51.14c-14 2.62-33.08 3.16-44.24 3.16-3.25 0-5.78-.11-7.3-.11-3.25-.11-4-1.09-4-4.25v-12.22c18.06-4.47 37.64-10.69 55-18.54l-13.6-18.32c-10.45 6.54-27.19 12.21-41.19 15.92.2-9.6.51-19.3 1.12-27.7l-21.1-.54c.41 8.07.51 19.74.51 31.08 0 14.28-.2 28.24-.41 34.78v1.31c0 12 5.78 18.21 19.79 18.76 6.19.22 12.68.33 19.08.33 12.48 0 24.65-.44 34.4-1.2zm91.1-30.76c-11.47.22-29.22.33-46.37.33-14.92 0-29.32-.11-38.86-.33V134c9.23-.11 23.13-.22 37.54-.22 17.55 0 35.92.11 47.69.22zM182.3 41.2a7.94 7.94 0 0 0-5.75-2.35c-3.71 0-6.08 2.41-6.08 5.67 0 2.55 1.26 4.92 4.76 6.13l1.08.38c1.12.38 1.55 1 1.55 1.76a1.58 1.58 0 0 1-1.6 1.56h-.18a4.13 4.13 0 0 1-3.24-1.64L170 55.59a7.57 7.57 0 0 0 6.13 2.81c3.56 0 6.21-2.18 6.21-5.94 0-2.6-1.34-4.51-4.44-5.64l-1-.37c-1.3-.47-2-1.1-2-2a1.56 1.56 0 0 1 1.57-1.54h.18a4.27 4.27 0 0 1 3.07 1.33zm13.39-2.06h-4.25v12.69c0 1.63-.78 2.4-2.08 2.4s-2.08-.77-2.08-2.4V39.14H183V52c0 3.77 2.1 6.37 6.35 6.37s6.33-2.6 6.33-6.37zm6.85 12.46a5.77 5.77 0 0 0 6.18-6.17c0-3.84-2.38-6.29-6.21-6.29h-5.78v19H201V51.6zm-.05-8.53c1 0 1.9.77 1.9 2.36s-.9 2.35-1.9 2.35H201v-4.7z"/><path d="M219.11 54.24H213v-3.77h5.67V46.6H213V43h6.13v-3.86h-10.34v19h10.32zm6.82-15.1h-5.81v19h4.26v-7h.12l3.19 7h4.81l-3.85-7.48a5.39 5.39 0 0 0 3.5-5.38c0-3.77-2.38-6.14-6.22-6.14zm0 3.93c1 0 1.87.69 1.87 2.18s-.87 2.2-1.87 2.2h-1.56v-4.38zm22.29-1.87a7.94 7.94 0 0 0-5.75-2.35c-3.71 0-6.08 2.41-6.08 5.67 0 2.55 1.26 4.92 4.76 6.13l1.08.38c1.12.38 1.55 1 1.55 1.76a1.58 1.58 0 0 1-1.6 1.56H242a4.13 4.13 0 0 1-3.24-1.64l-2.84 2.9A7.57 7.57 0 0 0 242 58.4c3.56 0 6.21-2.18 6.21-5.94 0-2.6-1.34-4.51-4.44-5.64l-1-.37c-1.3-.47-2-1.1-2-2a1.56 1.56 0 0 1 1.57-1.54h.18a4.27 4.27 0 0 1 3.07 1.33zm17.5-2.06h-5.78L257.45 48l-2.51-8.89h-5.78v19h4.21V45.46l2 7.82h4.11l2-7.85v12.69h4.21zm10.21 0H271l-5 19h4.37l.83-3.71h4.42l.83 3.71h4.42zm-2.47 5.37l1.34 6h-2.69zm19.73-3.31a7.94 7.94 0 0 0-5.75-2.35c-3.71 0-6.08 2.41-6.08 5.67 0 2.55 1.26 4.92 4.76 6.13l1.08.38c1.12.38 1.55 1 1.55 1.76a1.58 1.58 0 0 1-1.6 1.56H287a4.13 4.13 0 0 1-3.24-1.64l-2.84 2.9A7.57 7.57 0 0 0 287 58.4c3.56 0 6.21-2.18 6.21-5.94 0-2.6-1.34-4.51-4.44-5.64l-1-.37c-1.3-.47-2-1.1-2-2a1.56 1.56 0 0 1 1.57-1.54h.18a4.27 4.27 0 0 1 3.07 1.33zm5.2-2.06h-4.26v19h4.26V50.5h4.32v7.62H307v-19h-4.26v7.43h-4.32zm13.33 0v19h6.14c4 0 6.12-2 6.12-5.46a4.63 4.63 0 0 0-2.45-4.16 4.45 4.45 0 0 0 2.14-3.93c0-3.37-2.31-5.42-6.13-5.42zm6 11.26a2 2 0 0 1 0 4H316v-4zm-.26-7.51a1.91 1.91 0 0 1 0 3.82H316V42.9zm13.21-3.75h-5.81v19h4.26v-7h.12l3.19 7h4.81l-3.85-7.48a5.39 5.39 0 0 0 3.5-5.38c.01-3.77-2.37-6.14-6.22-6.14zm0 3.93c1 0 1.87.69 1.87 2.18s-.87 2.2-1.87 2.2h-1.56v-4.38zm13.81-4.21c-4.37 0-7 3.48-7 9.77s2.62 9.77 7 9.77 7-3.48 7-9.77-2.63-9.77-7-9.77zm0 4.17c1.67 0 2.61 1.71 2.61 5.6s-.94 5.6-2.61 5.6-2.61-1.71-2.61-5.6.94-5.63 2.61-5.63zm19.88-1.83a7.94 7.94 0 0 0-5.75-2.35c-3.71 0-6.08 2.41-6.08 5.67 0 2.55 1.26 4.92 4.76 6.13l1.08.38c1.12.38 1.55 1 1.55 1.76a1.58 1.58 0 0 1-1.6 1.56h-.18a4.13 4.13 0 0 1-3.24-1.64l-2.84 2.9a7.57 7.57 0 0 0 6.13 2.81c3.56 0 6.21-2.18 6.21-5.94 0-2.6-1.34-4.51-4.44-5.64l-1-.37c-1.3-.47-2-1.1-2-2a1.56 1.56 0 0 1 1.57-1.54h.18a4.27 4.27 0 0 1 3.07 1.33zm3.31 12.17a2.52 2.52 0 1 0 2.49 2.55 2.51 2.51 0 0 0-2.47-2.55z"/></g></svg>