<svg xmlns="http://www.w3.org/2000/svg" width="1049" height="102" viewBox="0 0 1049 102"><pattern id="diagonal-texture" patternUnits="userSpaceOnUse" width="6" height="6"><style>.diagonal-1{fill:#242424}</style><path d="M0 0h6v6H0z"/><path class="diagonal-1" d="M5 0h1v1H5zM4 1h1v1H4zM3 2h1v1H3zM2 3h1v1H2zM1 4h1v1H1zM0 5h1v1H0zM4.5.5H5V1h-.5zM5 1h.5v.5H5zM4 2h.5v.5H4zm-.5-.5H4V2h-.5zm-1 1H3V3h-.5zM3 3h.5v.5H3zM2 4h.5v.5H2zM1 5h.5v.5H1zM0 0h.5v.5H0z"/>/&gt;<path class="diagonal-1" d="M5.5 5.5H6V6h-.5zm-4-2H2V4h-.5zm-1 1H1V5H.5z"/></pattern><style>.ptn{fill:url(#diagonal-texture)}</style><g class="ptn"><path class="st2" d="M101.7 63.4c-3.3-3.3-7.9-5.1-12.5-5-8.1 0-13.2 5.1-13.2 12.1 0 5.4 2.8 10.5 10.4 13l2.3.8c2.3.8 3.3 2.1 3.3 3.7 0 2-1.6 3.3-3.9 3.3-2.8 0-5.4-1.3-7.1-3.5L74.9 94a17 17 0 0 0 13.3 6c7.8 0 13.5-4.6 13.5-12.6 0-5.5-2.9-9.6-9.7-12l-2-.8c-2.8-1-4.4-2.3-4.4-4.3s1.6-3.3 3.8-3.3c2.5 0 4.9 1 6.7 2.8l5.6-6.4z"/><path class="st3" d="M130.8 59h-9.2v27c0 3.5-1.7 5.1-4.5 5.1s-4.5-1.6-4.5-5.1V59h-9.3v27.4c0 8 4.6 13.6 13.8 13.6s13.8-5.5 13.8-13.6V59z"/><path class="st4" d="M145.7 85.5c8.3 0 13.5-5.2 13.5-13.1 0-8.2-5.2-13.4-13.5-13.4H133v40.4h9.3V85.5h3.4zm-.1-18.1c2.2 0 4.1 1.6 4.1 5 0 3.3-2 5-4.1 5h-3.2v-10h3.2z"/><path class="st5" d="M182.9 91.1h-13.2v-8H182v-8.2h-12.3v-7.6H183V59h-22.6v40.4h22.5v-8.3z"/><path class="st6" d="M197.7 59h-12.6v40.4h9.3v-15h.3l6.9 15H212l-8.4-15.9c4.8-1.8 7.6-5.9 7.6-11.4.1-8.1-5.1-13.1-13.5-13.1zm.1 8.4c2.2 0 4.1 1.5 4.1 4.6 0 3.2-1.9 4.7-4.1 4.7h-3.4v-9.3h3.4z"/><path class="st7" d="M246.2 63.4c-3.3-3.3-7.9-5.1-12.5-5-8.1 0-13.2 5.1-13.2 12.1 0 5.4 2.8 10.5 10.4 13l2.3.8c2.4.8 3.4 2.1 3.4 3.7 0 2-1.6 3.3-3.9 3.3-2.8 0-5.4-1.3-7.1-3.5l-6.2 6.2a17 17 0 0 0 13.3 6c7.8 0 13.5-4.6 13.5-12.6 0-5.5-2.9-9.6-9.7-12l-2.1-.8c-2.8-1-4.4-2.3-4.4-4.3s1.6-3.3 3.8-3.3c2.5 0 4.9 1 6.7 2.8l5.7-6.4z"/><path class="st8" d="M284 59h-12.6L266 77.9 260.6 59H248v40.4h9.2v-27l4.4 16.6h9l4.4-16.7v27h9.2L284 59z"/><path class="st9" d="M305.9 59h-10.7l-10.9 40.4h9.5l1.8-7.9h9.6l1.8 7.9h9.6L305.9 59zm-5.4 11.4l2.9 12.8h-5.9l3-12.8z"/><path class="st10" d="M343.2 63.4c-3.3-3.3-7.9-5.1-12.5-5-8.1 0-13.2 5.1-13.2 12.1 0 5.4 2.8 10.5 10.4 13l2.3.8c2.4.8 3.4 2.1 3.4 3.7 0 2-1.6 3.3-3.9 3.3-2.8 0-5.4-1.3-7.1-3.5l-6.2 6.2a17 17 0 0 0 13.3 6c7.8 0 13.5-4.6 13.5-12.6 0-5.5-2.9-9.6-9.7-12l-2.1-.8c-2.8-1-4.4-2.3-4.4-4.3s1.6-3.3 3.8-3.3c2.5 0 4.9 1 6.7 2.8l5.7-6.4z"/><path class="st11" d="M354.2 59h-9.3v40.4h9.3V83.2h9.4v16.2h9.3V59h-9.3v15.8h-9.4V59z"/><path class="st12" d="M382.6 59v40.4H396c8.6 0 13.3-4.4 13.3-11.6 0-3.7-2-7.1-5.3-8.9 3-1.7 4.7-4.9 4.7-8.4 0-7.2-5-11.5-13.3-11.5h-12.8zm13.1 24c2.3 0 4 1.3 4 4.2 0 2.9-1.8 4.2-4 4.2h-3.9V83h3.9zm-.5-16c2-.1 3.8 1.4 3.9 3.4v.6c0 2.8-1.7 4.1-3.9 4.1h-3.3V67h3.3z"/><path class="st13" d="M423.6 59H411v40.4h9.3v-15h.3l6.9 15H438l-8.4-15.9c4.8-1.8 7.6-5.9 7.6-11.4-.1-8.1-5.3-13.1-13.6-13.1zm0 8.4c2.2 0 4.1 1.5 4.1 4.6 0 3.2-1.9 4.7-4.1 4.7h-3.4v-9.3h3.4z"/><path class="st14" d="M453.3 58.4c-9.5 0-15.2 7.4-15.2 20.8s5.7 20.8 15.2 20.8 15.2-7.4 15.2-20.8-5.7-20.8-15.2-20.8zm0 8.9c3.6 0 5.7 3.6 5.7 11.9s-2 11.9-5.7 11.9-5.7-3.6-5.7-11.9 2.1-11.9 5.7-11.9z"/><path class="st15" d="M496.3 63.4c-3.3-3.3-7.9-5.1-12.5-5-8.1 0-13.2 5.1-13.2 12.1 0 5.4 2.8 10.5 10.4 13l2.3.8c2.4.8 3.4 2.1 3.4 3.7 0 2-1.6 3.3-3.9 3.3-2.8 0-5.4-1.3-7.1-3.5l-6.2 6.2a17 17 0 0 0 13.3 6c7.8 0 13.5-4.6 13.5-12.6 0-5.5-2.9-9.6-9.7-12l-2.1-.8c-2.8-1-4.4-2.3-4.4-4.3s1.6-3.3 3.8-3.3c2.5 0 4.9 1 6.7 2.8l5.7-6.4z"/><path class="st16" d="M503.2 89.3c-3 0-5.3 2.5-5.3 5.4s2.5 5.3 5.4 5.3c2.9 0 5.3-2.4 5.3-5.4 0-2.9-2.5-5.3-5.4-5.3z"/></g><g class="ptn"><path class="st17" d="M543.5 69.8H537V100h-15V25.9h15v29.6h5l12.9-29.6h18.2L555 60.4l20.2 39.6h-17.8l-13.9-30.2z"/><path class="st18" d="M618.9 84.8h-20.4l-4 15.2h-15.8l23.2-74.1h13.7l23.3 74.1h-16l-4-15.2zm-17.2-12.4h13.8L608.6 46l-6.9 26.4z"/><path class="st19" d="M666.6 69.8h-6.5V100h-15V25.9h15v29.6h5L678 25.9h18.2l-18.1 34.5 20.2 39.6h-17.8l-13.9-30.2z"/><path class="st20" d="M764.1 25.9h15V100h-15V50.9L742.3 100h-15V25.9h15V75l21.8-49.1z"/><path class="st21" d="M831.3 38.4h-26.6V100h-15V25.9h41.6v12.5z"/><path class="st22" d="M853.6 73.9V100h-15V25.9h25.2c3.5-.1 6.9.6 10.1 1.8 2.9 1.1 5.4 2.9 7.6 5.1 2.1 2.2 3.7 4.9 4.8 7.8 1.1 3.1 1.7 6.5 1.7 9.8 0 3.3-.5 6.6-1.7 9.7-1 2.8-2.7 5.3-4.8 7.4-2.2 2.1-4.7 3.7-7.6 4.7-3.2 1.1-6.6 1.7-10.1 1.7h-10.2zm0-12.4h10.3c1.4 0 2.8-.2 4-.8 1.1-.5 2.1-1.3 2.8-2.3.8-1 1.3-2.2 1.6-3.5.4-1.4.5-2.9.5-4.4 0-1.5-.2-3.1-.5-4.6-.3-1.4-.8-2.7-1.6-3.9-.7-1.1-1.7-2-2.8-2.7-1.2-.7-2.6-1.1-4-1h-10.3v23.2z"/><path class="st23" d="M926.3 84.8h-20.4l-4 15.2h-15.8l23.2-74.1H923l23.3 74.1h-16l-4-15.2zm-17.1-12.4H923L916.1 46l-6.9 26.4z"/><path class="st24" d="M992.5 38.4h-18.3V100h-15V38.4h-18V25.9h51.3v12.5z"/><path class="st25" d="M1014.6 52.5h9.1c3.4 0 6.9.5 10.1 1.7 2.9 1 5.5 2.7 7.7 4.8 2.1 2.1 3.8 4.6 4.9 7.4 1.2 3.1 1.7 6.3 1.7 9.6s-.5 6.6-1.7 9.7c-1.1 2.8-2.7 5.4-4.9 7.6-2.2 2.2-4.8 3.8-7.7 4.9-3.2 1.2-6.7 1.8-10.1 1.8h-24.1V25.9h15v26.6zm0 12.4v22.6h9.1c1.4 0 2.8-.3 4.1-.9 1.2-.6 2.2-1.5 3-2.5.8-1.1 1.4-2.4 1.8-3.7.4-1.5.6-3 .6-4.5s-.2-2.9-.6-4.3c-.4-1.3-1-2.4-1.8-3.5-.8-1-1.8-1.8-3-2.3-1.3-.6-2.7-.9-4.1-.8l-9.1-.1z"/></g></svg>