<svg xmlns="http://www.w3.org/2000/svg" viewBox="0 0 1049 102"><pattern id="a" patternUnits="userSpaceOnUse" width="6" height="6"><path d="M0 0h6v6H0z"/><path d="M5 0h1v1H5zM4 1h1v1H4zM3 2h1v1H3zM2 3h1v1H2zM1 4h1v1H1zM0 5h1v1H0z" fill="#242424"/></pattern><path d="M420.306 76.038l-2.136-.778c-2.839-1.01-4.419-2.336-4.419-4.268 0-2.018 1.58-3.258 3.8-3.258a9.39 9.39 0 0 1 6.672 2.826l5.648-6.488a17.5 17.5 0 0 0-12.525-4.988c-8.077 0-13.227 5.132-13.227 12.052 0 5.421 2.751 10.467 10.359 13.033l2.341.808c2.429.807 3.366 2.1 3.366 3.748 0 1.961-1.551 3.287-3.863 3.287a9.056 9.056 0 0 1-7.053-3.489l-6.174 6.17a16.624 16.624 0 0 0 13.344 5.969c7.755 0 13.52-4.642 13.52-12.629.004-5.533-2.922-9.602-9.653-11.995zm-25.382-3.345c0-7.958-5.179-13-13.549-13h-12.642v40.366h9.277V85.092h.263l6.936 14.964h10.476l-8.369-15.916c4.828-1.787 7.608-5.91 7.608-11.447zM381.4 77.365h-3.39v-9.314h3.39c2.166 0 4.068 1.471 4.068 4.642.004 3.201-1.898 4.672-4.068 4.672zm68.272 1.235L444.2 59.69h-12.584v40.366h9.159v-26.93l4.39 16.637h8.955l4.39-16.7v26.988h9.159V59.69h-12.583zm147.379-38.175v3.881c0 3.92-.037 7.958-.11 11.329h7.63a711.581 711.581 0 0 1-.183-15.641c0-1.842 0-3.567.037-5.056a80.207 80.207 0 0 0 9.6-9.644l-6.608-4.978c-4.271 7.526-15.588 15.4-25.371 19.325l4.782 6.7a99.076 99.076 0 0 0 10.223-5.916zM478.915 59.69l-10.857 40.366h9.511l1.814-7.9h9.628l1.815 7.9h9.627L489.567 59.69zm2.341 24.191l2.927-12.773 2.926 12.773zm-137.179 16.175h22.475V91.81h-13.2v-8.016H365.7v-8.246h-12.35v-7.612h13.35V59.69h-22.623zM630.1 32.821c2.994-.079 5.33-.157 9.382-.157a21.484 21.484 0 0 1-3.249 5.762c-1.9-1.332-3.942-2.665-5.585-3.645l-5.221 5.213a54.577 54.577 0 0 1 5.294 3.607 41.683 41.683 0 0 1-13.617 5.37l5.476 6.507c15.552-4.821 21.429-12.818 26.211-26.969l-3.285-3.1c-2.337.2-4.636.235-6.827.235-1.5 0-2.957-.039-4.307-.039a78.49 78.49 0 0 0 1.423-3.136l-7.265-2.038c-1.788 6.036-6.388 12-12.777 15.915l5.987 5.174a38.925 38.925 0 0 0 8.36-8.699zm51.305 8.7v-7.877c-4.125.078-10.514.118-16.683.118-5.367 0-10.551-.04-13.982-.118v7.879c3.322-.039 8.323-.078 13.507-.078 6.318 0 12.925.039 17.16.078zM537.81 31.331c-1.752 8.232-6.9 14.5-18.837 16.66l5.914 6.625c13.142-3.959 19.458-13.054 21.247-27.95l-3.651-2.861c-3.468.117-9.2.2-14.639.2-4.125 0-8.031-.039-10.587-.118l.147 7.8c5.95-.317 14.857-.356 20.406-.356zM329.255 59.69h-12.583v40.366h9.276V86.188h3.366c8.281 0 13.461-5.19 13.461-13.12 0-8.159-5.175-13.378-13.52-13.378zm-.055 18.367h-3.249V68.051h3.249c2.165 0 4.126 1.644 4.126 5.017-.003 3.345-1.964 4.989-4.126 4.989zm-53.464-2.019l-2.136-.778c-2.838-1.01-4.419-2.336-4.419-4.268 0-2.018 1.581-3.258 3.805-3.258a9.392 9.392 0 0 1 6.672 2.826l5.648-6.488a17.5 17.5 0 0 0-12.525-4.988c-8.077 0-13.228 5.132-13.228 12.052 0 5.421 2.751 10.467 10.36 13.033l2.341.808c2.429.807 3.365 2.1 3.365 3.748 0 1.961-1.551 3.287-3.863 3.287a9.054 9.054 0 0 1-7.052-3.489l-6.175 6.17a16.626 16.626 0 0 0 13.345 5.969c7.755 0 13.52-4.642 13.52-12.629-.003-5.533-2.93-9.602-9.661-11.995zm29.454 10.64c0 3.46-1.7 5.1-4.536 5.1s-4.536-1.643-4.536-5.1V59.69h-9.276v27.42c0 8.016 4.565 13.552 13.812 13.552s13.784-5.536 13.784-13.552V59.69h-9.248zm381.62 3.287a5.363 5.363 0 1 0 5.414 5.363 5.4 5.4 0 0 0-5.417-5.363zm181.318-39.013h-18.966V19.813h-18.73v79.552h18.73V67.43h18.966v31.935h18.73V19.813h-18.73zm-70.219 3.523v15.058h11.64c-1.3 10.512-5.14 13.921-10.99 13.921-6.558 0-11.58-6.023-11.58-23.865 0-17.1 4.195-23.638 11.285-23.638 4.55 0 7.445 2.159 9.572 6.477l14.83-8.75c-4.313-9.66-12.408-15.058-23.929-15.058-19.262 0-30.9 14.148-30.9 40.969 0 27.275 11.994 40.969 31.079 40.969 14.948 0 28.538-11.137 28.538-37.105 0-3.41-.118-6.592-.355-8.978zm-52.335 44.89H764.3V19.813h-18.73zM517.263 76.038l-2.136-.778c-2.839-1.01-4.419-2.336-4.419-4.268 0-2.018 1.58-3.258 3.8-3.258a9.393 9.393 0 0 1 6.673 2.826l5.648-6.488a17.5 17.5 0 0 0-12.525-4.988c-8.077 0-13.228 5.132-13.228 12.052 0 5.421 2.751 10.467 10.36 13.033l2.341.808c2.429.807 3.365 2.1 3.365 3.748 0 1.961-1.551 3.287-3.863 3.287a9.054 9.054 0 0 1-7.052-3.489l-6.175 6.17a16.624 16.624 0 0 0 13.344 5.969c7.755 0 13.52-4.642 13.52-12.629.004-5.533-2.922-9.602-9.653-11.995zm180.3 23.327H716.3V67.942h23.693V51.69H716.3V36.064h25.938V19.813h-44.673zm191.625-63.017h16.543v63.017h18.73V36.348h16.426V19.813h-51.7zm53.5 63.017h45.377V83.113H961.42v-15.8h24.934V51.065H961.42v-15h26.943V19.813H942.69zM1029.989 68c9.749-3.523 15.362-11.648 15.362-22.558 0-15.683-10.458-25.627-27.356-25.627H992.47v79.55h18.73V69.874h.532l14 29.491h21.152zm-11.935-13.353h-6.854V36.292h6.854c4.372 0 8.213 2.9 8.213 9.148 0 6.307-3.841 9.205-8.213 9.205zm-447.776-10.38c4.49-2.822 7.119-7.448 8.725-12.818l-3.651-3.175c-2.482.156-6.863.2-11.426.2-4.2 0-8.542-.04-11.536-.157l.183 6.664c5.987-.157 11.207-.314 18.143-.314a7.934 7.934 0 0 1-3.687 3.842c.073-.863.073-1.686.073-2.509l-6.425-.2a20.386 20.386 0 0 1 .146 2.548c0 5.919-2.665 10-9.163 11.564l5.074 5.605c6.717-3.606 9.382-7.879 10.112-14.386zM547.244 75.49h-9.394v-15.8h-9.277v40.366h9.277v-16.2h9.394v16.2h9.277V59.69h-9.277zm40.363 4.095a9.418 9.418 0 0 0 4.653-8.362c0-7.18-5.033-11.533-13.344-11.533h-12.672v40.366h13.374c8.633 0 13.315-4.353 13.315-11.619a9.82 9.82 0 0 0-5.326-8.852zm-12.086-11.908h3.307a3.656 3.656 0 0 1 3.892 4.036c0 2.8-1.7 4.1-3.892 4.1h-3.307zm3.863 24.423h-3.863v-8.45h3.863c2.282 0 4.038 1.3 4.038 4.239 0 2.911-1.756 4.211-4.038 4.211zm90.963-16.061l-2.137-.778c-2.838-1.01-4.419-2.336-4.419-4.268 0-2.018 1.581-3.258 3.8-3.258a9.39 9.39 0 0 1 6.672 2.826l5.648-6.488a17.5 17.5 0 0 0-12.525-4.988c-8.077 0-13.228 5.132-13.228 12.052 0 5.421 2.751 10.467 10.36 13.033l2.341.808c2.429.807 3.365 2.1 3.365 3.748 0 1.961-1.551 3.287-3.862 3.287a9.055 9.055 0 0 1-7.053-3.489l-6.175 6.17a16.627 16.627 0 0 0 13.345 5.969c7.755 0 13.52-4.642 13.52-12.629.001-5.534-2.922-9.603-9.652-11.996zm-33.4-16.954c-9.511 0-15.217 7.41-15.217 20.789s5.706 20.789 15.217 20.789 15.247-7.41 15.247-20.789-5.739-20.79-15.25-20.79zm0 32.7c-3.628 0-5.677-3.633-5.677-11.908s2.049-11.908 5.677-11.908 5.678 3.633 5.678 11.908-2.052 11.904-5.681 11.904zm-16.2-19.088c0-7.958-5.179-13-13.549-13h-12.642v40.366h9.277V85.092h.263l6.935 14.964h10.477l-8.369-15.916c4.828-1.787 7.608-5.91 7.608-11.447zm-13.52 4.672h-3.394v-9.318h3.394c2.166 0 4.068 1.471 4.068 4.642 0 3.201-1.902 4.672-4.068 4.672z" fill="url(#a)" fill-rule="evenodd"/></svg>