<svg data-name="レイヤー 1" xmlns="http://www.w3.org/2000/svg" viewBox="0 0 578 36"><path d="M18.81 28.2h-11v-6.85H18.1v-7H7.76V7.8h11.17v-7H0v34.45h18.81zM45.56 4.5A14.48 14.48 0 0 0 35.08.24C28.32.24 24 4.62 24 10.54c0 4.63 2.3 8.94 8.67 11.14l2 .69c2 .69 2.82 1.8 2.82 3.2 0 1.68-1.3 2.81-3.23 2.81a7.53 7.53 0 0 1-5.9-3l-5.17 5.27a13.8 13.8 0 0 0 11.17 5.1c6.49 0 11.31-4 11.31-10.79 0-4.73-2.45-8.2-8.08-10.25l-1.79-.67c-2.38-.86-3.7-2-3.7-3.65s1.32-2.78 3.18-2.78A7.78 7.78 0 0 1 40.84 10zM62.21.24C54.4.24 49.62 6.49 49.62 18s4.78 17.76 12.59 17.76c5.12 0 8.77-2.78 10.63-7.66l-6.46-3.38c-1 2.34-2.28 3.45-4.14 3.45-2.67 0-4.6-2.86-4.63-10.17 0-7 1.76-10.17 4.63-10.17 1.89 0 3.18 1.11 4.06 3.47L73 8.19C71.22 3.07 67.3.24 62.21.24zM95.62 28.2h-11v-6.85h10.29v-7H84.58V7.8h11.17v-7H76.82v34.45h18.8zM124.93.75h-7.62V20L108.23.75h-7.59v34.5h7.62V16l9.08 19.24h7.59zm21.51 0h-8.91l-9.08 34.49h8l1.52-6.75H146l1.52 6.75h8.06zm-4.51 9.76l2.45 10.91h-4.9zM169.65.75h-10.58v34.5h7.76V22.46h.22l5.8 12.79h8.77l-7-13.6c4-1.53 6.37-5.05 6.37-9.78C181 5.07 176.65.75 169.65.75zm0 7.14c1.81 0 3.4 1.26 3.4 4s-1.59 4-3.4 4h-2.84v-8zM193.34.75h-7.76v34.5h7.76zm17.39-.51C202.77.24 198 6.57 198 18s4.78 17.76 12.73 17.76 12.75-6.33 12.75-17.76S218.68.24 210.73.24zm0 7.59c3 0 4.75 3.1 4.75 10.17s-1.71 10.17-4.75 10.17S206 25.07 206 18s1.69-10.17 4.73-10.17zm39.14-3.33A14.48 14.48 0 0 0 239.39.24c-6.76 0-11.07 4.39-11.07 10.3 0 4.63 2.3 8.94 8.67 11.14l2 .69c2 .69 2.82 1.8 2.82 3.2 0 1.68-1.3 2.81-3.23 2.81a7.53 7.53 0 0 1-5.9-3l-5.17 5.27a13.8 13.8 0 0 0 11.17 5.1c6.49 0 11.31-4 11.31-10.79 0-4.73-2.45-8.2-8.08-10.25l-1.79-.67c-2.38-.86-3.7-2-3.7-3.65s1.32-2.78 3.18-2.78a7.78 7.78 0 0 1 5.55 2.39zM263.79.75v34.5h10.68c8.55 0 13.2-6.87 13.2-17.25S283 .75 274.47.75zm10.49 7.15c3.92 0 5.41 3.89 5.41 10.1s-1.49 10.1-5.41 10.1h-2.72V7.9zm36.84 20.3h-11v-6.85h10.33v-7h-10.37V7.8h11.17v-7h-18.94v34.45h18.81zm26.76-23.7A14.48 14.48 0 0 0 327.4.24c-6.76 0-11.07 4.39-11.07 10.3 0 4.63 2.3 8.94 8.67 11.14l2 .69c2 .69 2.82 1.8 2.82 3.2 0 1.68-1.3 2.81-3.23 2.81a7.53 7.53 0 0 1-5.9-3l-5.17 5.27a13.8 13.8 0 0 0 11.17 5.1c6.49 0 11.31-4 11.31-10.79 0-4.73-2.45-8.2-8.08-10.25l-1.79-.67c-2.38-.86-3.7-2-3.7-3.65s1.32-2.78 3.18-2.78a7.78 7.78 0 0 1 5.54 2.39zM354.52.24c-7.81 0-12.59 6.26-12.59 17.76s4.78 17.76 12.59 17.76c5.12 0 8.77-2.78 10.63-7.66l-6.46-3.38c-1 2.34-2.28 3.45-4.14 3.45-2.67 0-4.6-2.86-4.63-10.17 0-7 1.76-10.17 4.63-10.17 1.89 0 3.18 1.11 4.06 3.47l6.69-3.1c-1.77-5.13-5.69-7.96-10.78-7.96zm30.9.51h-8.92l-9.08 34.49h8l1.52-6.75H385l1.52 6.75h8.06zm-4.51 9.76l2.45 10.91h-4.9zM408.62.75H398v34.5h7.76V22.46h.24l5.8 12.79h8.77l-7-13.6c4-1.53 6.37-5.05 6.37-9.78C420 5.07 415.62.75 408.62.75zm0 7.14c1.81 0 3.4 1.26 3.4 4s-1.59 4-3.4 4h-2.84v-8zM436.77.24C428.79.24 424 6.37 424 18c0 11.83 5 17.76 12.88 17.76 6.2 0 11.83-4.83 11.83-16.09 0-1.48 0-2.86-.15-3.89h-12.1v6.53h4.82c-.54 4.56-2.13 6-4.55 6-2.72 0-4.8-2.61-4.8-10.35 0-7.42 1.74-10.25 4.68-10.25 1.89 0 3.09.94 4 2.81l6.15-3.79a10.1 10.1 0 0 0-9.99-6.49zm32.61.51h-8.91l-9.08 34.49h8l1.52-6.75h8.06l1.52 6.75h8.06zm-4.51 9.76l2.45 10.91h-4.9zM482 .75v34.5h11.2c7.22 0 11.14-3.72 11.14-9.93a8.41 8.41 0 0 0-4.46-7.56 8.08 8.08 0 0 0 3.89-7.14c0-6.13-4.21-9.85-11.17-9.85zm11 20.47c1.91 0 3.38 1.11 3.38 3.62s-1.47 3.6-3.38 3.6h-3.23v-7.21zm-.47-13.65A3.09 3.09 0 0 1 495.8 11c0 2.39-1.42 3.5-3.26 3.5h-2.77V7.58zm35.31 20.51h-11.19V.75h-7.76v34.5h19zm22.72.12h-11v-6.85h10.33v-7h-10.38V7.8h11.17v-7h-18.93v34.45h18.81zm26.76-23.7A14.48 14.48 0 0 0 566.83.24c-6.76 0-11.07 4.39-11.07 10.3 0 4.63 2.3 8.94 8.67 11.14l2 .69c2 .69 2.82 1.8 2.82 3.2 0 1.68-1.3 2.81-3.23 2.81a7.53 7.53 0 0 1-5.9-3l-5.17 5.27a13.8 13.8 0 0 0 11.17 5.1c6.49 0 11.31-4 11.31-10.79 0-4.73-2.45-8.2-8.08-10.25l-1.79-.67c-2.38-.86-3.7-2-3.7-3.65s1.32-2.78 3.18-2.78a7.78 7.78 0 0 1 5.55 2.39z" fill="#fff" opacity=".2"/></svg>