<svg data-name="レイヤー 1" xmlns="http://www.w3.org/2000/svg" viewBox="0 0 347 74"><path d="M58.8 58.57a225.11 225.11 0 0 0-18.65-18.1 127.44 127.44 0 0 0 11.08-24.81L44.61 9c-5.35.23-11.14.39-16.74.39-6.81 0-13.3-.23-18.14-.55V24.4c6.94-.23 16.17-.39 24.7-.39-5 11.39-14 25-34.06 34.95l10.88 11.86a96.23 96.23 0 0 0 21.14-19.19A128.29 128.29 0 0 1 48.3 70.35zm49.85-51.18c-4.33.16-11.33.23-18.52.23-8 0-16.23-.08-21.07-.31V22c5.47-.16 15.66-.31 24.83-.31 5.79 0 11.2.08 14.77.23zM78.16 73.71c11.71-7.33 18-15.91 19.35-33 8.21 0 15.28.08 18.78.16V26.2c-5.86.16-20.5.31-33.55.31-9 0-17.31-.08-21.26-.31v14.66c4.14-.08 13.3-.16 22.92-.16-1 10.53-5.73 16.62-18.33 21.14zm96.26-44.78c-7.19.16-18.33.23-29.09.23-9.36 0-18.4-.08-24.38-.23v15.68c5.79-.08 14.51-.16 23.55-.16 11 0 22.53.08 29.92.16zm62.13-20.37a104.46 104.46 0 0 0-7.32-8.27l-4.77 4.76c2.67 2.89 5 5.77 7.26 8.66zm-5.73 6.09c-2.42-3.2-4.65-5.93-7.19-8.82l-4.84 4.84a100.42 100.42 0 0 1 7.07 9.13zm-18.21 2.26a77.38 77.38 0 0 0-18.19-10.76l-6.75 12.56c5.28 2.26 13.56 7.1 18 10.92zm-5.86 16.3a102.47 102.47 0 0 0-18.25-10.45l-7 12.64a76.19 76.19 0 0 1 18.2 11.08zm-17.89 39c26.69-5.53 38.4-17.31 48.59-39.21L229 19.56c-7.13 22.7-22.85 36-46.09 36.43zm107.22-13.72v-13h-15.66v-4.16h15.66v-13h-15.66v-3.9h17.44v-14h-18.27A49 49 0 0 0 281 4l-13-1.4a57.48 57.48 0 0 1-9.68 23.87V20a79.34 79.34 0 0 0 5-13.89L251 2.64a76.34 76.34 0 0 1-10.44 22.55l2.1 20a18.66 18.66 0 0 0 3.63-4.68v32.18h12.09V32.83l4.33 10.38a34.69 34.69 0 0 0 5.41-7.72v37.2h12.35v-14.2zM320 24.17c-1.15 2.26-2 4.13-2.42 4.13-.13 0-.19-.23-.19-.86 0 0 .38-12 2.42-20.44L307 5.68a188.3 188.3 0 0 0-1.78 25.9c0 11.47.57 21.3 6.37 21.3 2.23 0 4.52-1.87 5.67-4.84 2-5.3 5-12.64 7.89-18.57zm-.51 48.52c20.18-3.28 26.73-16.07 27.12-31.67v-2.73c0-7.57-.51-20-.51-31.75V4.9h-13.3c.7 10.3 1.21 21.69 1.21 30.58 0 2 0 3.82-.06 5.54-.32 9.52-5.67 16.46-19.92 16.46h-1.65z"/></svg>