<svg xmlns="http://www.w3.org/2000/svg" width="1049" height="102" viewBox="0 0 1049 102"><pattern id="diagonal-texture" patternUnits="userSpaceOnUse" width="6" height="6"><style>.diagonal-1{fill:#242424}</style><path d="M0 0h6v6H0z"/><path class="diagonal-1" d="M5 0h1v1H5zM4 1h1v1H4zM3 2h1v1H3zM2 3h1v1H2zM1 4h1v1H1zM0 5h1v1H0zM4.5.5H5V1h-.5zM5 1h.5v.5H5zM4 2h.5v.5H4zm-.5-.5H4V2h-.5zm-1 1H3V3h-.5zM3 3h.5v.5H3zM2 4h.5v.5H2zM1 5h.5v.5H1zM0 0h.5v.5H0z"/>/&gt;<path class="diagonal-1" d="M5.5 5.5H6V6h-.5zm-4-2H2V4h-.5zm-1 1H1V5H.5z"/></pattern><style>.ptn{fill:url(#diagonal-texture)}</style><path d="M222.3 76.3l-2.1-.8c-2.8-1-4.4-2.3-4.4-4.3s1.6-3.3 3.8-3.3c2.5 0 4.9 1 6.7 2.8l5.6-6.5c-3.3-3.3-7.9-5.1-12.5-5-8.1 0-13.2 5.1-13.2 12.1 0 5.4 2.8 10.5 10.4 13l2.3.8c2.4.8 3.4 2.1 3.4 3.7 0 2-1.6 3.3-3.9 3.3-2.8 0-5.4-1.3-7.1-3.5l-6.2 6.2a17 17 0 0 0 13.3 6c7.8 0 13.5-4.6 13.5-12.6.1-5.4-2.8-9.5-9.6-11.9zM251.8 87c0 3.5-1.7 5.1-4.5 5.1s-4.5-1.6-4.5-5.1V60h-9.3v27.4c0 8 4.6 13.6 13.8 13.6S261 95.4 261 87.4V60h-9.2v27zm24.1-27h-12.6v40.4h9.3V86.5h3.4c8.3 0 13.5-5.2 13.5-13.1-.1-8.2-5.3-13.4-13.6-13.4zm-.1 18.4h-3.2v-10h3.2c2.2 0 4.1 1.6 4.1 5 0 3.3-1.9 5-4.1 5zm14.9 22h22.5v-8.2H300v-8h12.3V76H300v-7.6h13.3V60h-22.6v40.4zM341.5 73c0-8-5.2-13-13.5-13h-12.6v40.4h9.3v-15h.3l6.9 15h10.5L334 84.5c4.8-1.8 7.5-6 7.5-11.5zM328 77.7h-3.4v-9.3h3.4c2.2 0 4.1 1.5 4.1 4.6 0 3.2-1.9 4.7-4.1 4.7zm38.9-1.4l-2.1-.8c-2.8-1-4.4-2.3-4.4-4.3s1.6-3.3 3.8-3.3c2.5 0 4.9 1 6.7 2.8l5.6-6.5c-3.3-3.3-7.9-5.1-12.5-5-8.1 0-13.2 5.1-13.2 12.1 0 5.4 2.8 10.5 10.4 13l2.3.8c2.4.8 3.4 2.1 3.4 3.7 0 2-1.6 3.3-3.9 3.3-2.8 0-5.4-1.3-7.1-3.5l-6.2 6.2a17 17 0 0 0 13.3 6c7.8 0 13.5-4.6 13.5-12.6.1-5.4-2.9-9.5-9.6-11.9zm29.4 2.6L390.8 60h-12.6v40.4h9.2v-27l4.4 16.6h9l4.4-16.7v27h9.2V60h-12.6l-5.5 18.9zM425.5 60l-10.9 40.4h9.5l1.8-7.9h9.6l1.8 7.9h9.6L436.2 60h-10.7zm2.4 24.2l2.9-12.8 2.9 12.8h-5.8zm36-7.9l-2.1-.8c-2.8-1-4.4-2.3-4.4-4.3s1.6-3.3 3.8-3.3c2.5 0 4.9 1 6.7 2.8l5.6-6.5c-3.3-3.3-7.9-5.1-12.5-5-8.1 0-13.2 5.1-13.2 12.1 0 5.4 2.8 10.5 10.4 13l2.3.8c2.4.8 3.4 2.1 3.4 3.7 0 2-1.6 3.3-3.9 3.3-2.8 0-5.4-1.3-7.1-3.5l-6.2 6.2a17 17 0 0 0 13.3 6c7.8 0 13.5-4.6 13.5-12.6 0-5.4-2.9-9.5-9.6-11.9zm30-.5h-9.4V60h-9.3v40.4h9.3V84.2h9.4v16.2h9.3V60h-9.3v15.8zm40.3 4.1c3-1.7 4.7-4.9 4.7-8.4 0-7.2-5-11.5-13.3-11.5h-12.7v40.4h13.4c8.6 0 13.3-4.4 13.3-11.6 0-3.8-2.1-7.2-5.4-8.9zM522.1 68h3.3c2-.1 3.8 1.4 3.9 3.4v.6c0 2.8-1.7 4.1-3.9 4.1h-3.3V68zm3.9 24.4h-3.9V84h3.9c2.3 0 4 1.3 4 4.2 0 2.9-1.7 4.2-4 4.2zM567.4 73c0-8-5.2-13-13.5-13h-12.6v40.4h9.3v-15h.3l6.9 15h10.5l-8.4-15.9c4.7-1.8 7.5-6 7.5-11.5zm-13.6 4.7h-3.4v-9.3h3.4c2.2 0 4.1 1.5 4.1 4.6 0 3.2-1.9 4.7-4.1 4.7zm29.8-18.3c-9.5 0-15.2 7.4-15.2 20.8S574 101 583.6 101s15.2-7.4 15.2-20.8-5.7-20.8-15.2-20.8zm0 32.7c-3.6 0-5.7-3.6-5.7-11.9s2-11.9 5.7-11.9 5.7 3.6 5.7 11.9-2.1 11.9-5.7 11.9zM617 76.3l-2.1-.8c-2.8-1-4.4-2.3-4.4-4.3s1.6-3.3 3.8-3.3c2.5 0 4.9 1 6.7 2.8l5.6-6.5c-3.3-3.3-7.8-5.1-12.5-5-8.1 0-13.2 5.1-13.2 12.1 0 5.4 2.8 10.5 10.4 13l2.3.8c2.4.8 3.4 2.1 3.4 3.7 0 2-1.6 3.3-3.9 3.3-2.8 0-5.4-1.3-7.1-3.5l-6.2 6.2a17 17 0 0 0 13.3 6c7.8 0 13.5-4.6 13.5-12.6 0-5.4-2.9-9.5-9.6-11.9zm16.4 14c-3 0-5.3 2.5-5.3 5.4 0 3 2.5 5.3 5.4 5.3 2.9 0 5.3-2.4 5.3-5.4 0-2.9-2.4-5.3-5.4-5.3z" fill-rule="evenodd"/><g class="ptn"><path class="st3" d="M686.6 52h-23.7V36.4h25.9V20.1h-44.7v79.6h18.7V68.3h23.7V52z"/><path class="st4" d="M710.9 20.1h-18.7v79.6h18.7V20.1z"/><path class="st5" d="M745.3 18.9c-19.3 0-30.9 14.1-30.9 41 0 27.3 12 41 31.1 41 14.9 0 28.5-11.1 28.5-37.1 0-3.4-.1-6.6-.4-9h-29.2v15.1H756c-1.3 10.5-5.1 13.9-11 13.9-6.6 0-11.6-6-11.6-23.9 0-17.1 4.2-23.6 11.3-23.6 4.5 0 7.4 2.2 9.6 6.5l14.8-8.8c-4.1-9.7-12.2-15.1-23.8-15.1z"/><path class="st6" d="M795.8 20.1H777v79.6h18.7v-32h19v31.9h18.7V20.1h-18.7v31.1h-19V20.1z"/><path class="st7" d="M887.5 20.1h-51.7v16.5h16.5v63H871v-63h16.4V20.1z"/><path class="st8" d="M934.7 83.4H908V67.6h25V51.4h-25v-15h27V20.1h-45.7v79.6h45.4V83.4z"/><path class="st9" d="M964.6 20.1h-25.5v79.6h18.7V70.2h.5l14 29.5h21.2l-16.9-31.4c9.7-3.5 15.4-11.6 15.4-22.6 0-15.6-10.5-25.6-27.4-25.6zm.1 16.5c4.4 0 8.2 2.9 8.2 9.1 0 6.3-3.8 9.2-8.2 9.2h-6.9V36.6h6.9z"/><path class="st10" d="M1047.8 28.8c-7.9-7-15.8-9.8-25.3-9.8-16.3 0-26.7 10.1-26.7 23.8 0 10.7 5.6 20.6 20.9 25.7l4.7 1.6c4.9 1.6 6.8 4.1 6.8 7.4 0 3.9-3.1 6.5-7.8 6.5-6.4 0-10.8-3.1-14.2-6.9l-12.5 12.2c6.1 7.1 14.9 11.8 26.9 11.8 15.7 0 27.3-9.1 27.3-24.9 0-10.9-5.9-18.9-19.5-23.6l-4.3-1.5c-5.7-2-8.9-4.6-8.9-8.4 0-4 3.2-6.4 7.7-6.4 5 0 9.9 2 13.5 5.6l11.4-13.1z"/></g><g class="ptn"><path class="st11" d="M557.8 53.8v-33h6.5v33h-6.5zm6.8-16.2v-4.9h1.4v-1h-1.3v-4.4h1.3v-1h-1.4v-5h8.3v5h-1.4v1h1.2v4.4h-1.2v1h1.4v4.9h-8.3zm8.7 0v-4.9h1.5v-1h-1.4v-4.4h1.4v-1h-1.5v-5h8.6v5h-1.5v1h1.4v4.4h-1.4v1h1.5v4.9h-8.6zm4.4 9.3c4.4 0 4.5-.1 4.5-1.1V20.7h6.5v26c0 5.5-.3 7-9.1 7l-1.9-6.8z"/><path class="st12" d="M594.9 52.7v-6.8h10.7v-9.2h-12.7v-7.2h12.7v-8.9h7.8v8.9h12.7v7.2h-12.7v9.2h10.7v6.8h-29.2z"/></g></svg>