<svg id="レイヤー_1" data-name="レイヤー 1" xmlns="http://www.w3.org/2000/svg" viewBox="0 0 57 44"><defs><style/></defs><pattern id="diagonal-texture" patternUnits="userSpaceOnUse" width="6" height="6"><style>.diagonal-1{fill:#b3000e}</style><path fill="#e60012" d="M0 0h6v6H0z"/><path class="diagonal-1" d="M5 0h1v1H5zM4 1h1v1H4zM3 2h1v1H3zM2 3h1v1H2zM1 4h1v1H1zM0 5h1v1H0zM4.5.5H5V1h-.5zM5 1h.5v.5H5zM4 2h.5v.5H4zm-.5-.5H4V2h-.5zm-1 1H3V3h-.5zM3 3h.5v.5H3zM2 4h.5v.5H2zM1 5h.5v.5H1zM0 0h.5v.5H0z"/>/&gt;<path class="diagonal-1" d="M5.5 5.5H6V6h-.5zm-4-2H2V4h-.5zm-1 1H1V5H.5z"/></pattern><path class="cls-1" d="M57 20.92c0-1.19 0-3-1.73-3H1.73C0 17.93 0 19.73 0 20.92a3.34 3.34 0 0 0 .29 1.3v.14l.1.18.09.14 14.78 15.64 4-6.23L29.23 44l8.35-11.09 2.77 3.62 5.35-8.8 3 5.07 8.17-11a3.27 3.27 0 0 0 .13-.88zm-40.32-7.74H3.19a2.84 2.84 0 0 1-2.86-2.81 2.83 2.83 0 0 1 2.86-2.81h13.49a2.83 2.83 0 0 1 2.86 2.81 2.84 2.84 0 0 1-2.86 2.81zm37.13 0H40.32a2.84 2.84 0 0 1-2.86-2.81 2.83 2.83 0 0 1 2.86-2.81h13.49a2.83 2.83 0 0 1 2.86 2.81 2.84 2.84 0 0 1-2.86 2.81zM35.25 5.62h-13.5a2.83 2.83 0 0 1-2.85-2.81A2.83 2.83 0 0 1 21.75 0h13.5a2.84 2.84 0 0 1 2.85 2.81 2.83 2.83 0 0 1-2.85 2.81z" fill="url(#diagonal-texture)"/></svg>